<svg width="32" height="32" viewBox="0 0 32 32" fill="none" xmlns="http://www.w3.org/2000/svg">
<path d="M16.5632 22.4897C15.0877 21.3082 12.6952 21.3082 11.2197 22.4897C9.74569 23.6717 9.74569 25.5872 11.2197 26.7692C12.6947 27.9512 15.0872 27.9512 16.5632 26.7692C18.0377 25.5872 18.0377 23.6717 16.5632 22.4897ZM10.8932 20.7852C12.0367 19.3647 11.6497 17.5702 10.0297 16.7782C8.40919 15.9867 6.16969 16.4962 5.02619 17.9167C3.88419 19.3372 4.27019 21.1317 5.88969 21.9237C7.51069 22.7162 9.75069 22.2062 10.8932 20.7852M9.34169 14.0092C10.4362 12.7862 10.1717 11.1527 8.75019 10.3607C7.32919 9.56821 5.29069 9.91721 4.19569 11.1402C3.10069 12.3632 3.36569 13.9962 4.78669 14.7882C6.20769 15.5807 8.24719 15.2317 9.34169 14.0092ZM10.3502 9.65421C11.7092 10.4452 13.6847 10.1442 14.7617 8.98371C15.8392 7.82271 15.6117 6.24121 14.2532 5.45071C12.8947 4.65971 10.9192 4.96021 9.84219 6.12071C8.76419 7.28171 8.99169 8.86321 10.3502 9.65421ZM21.8232 7.63571C23.0332 7.01721 23.1677 5.80221 22.1232 4.92071C21.0797 4.03921 19.2502 3.82571 18.0397 4.44371C16.8287 5.06171 16.6947 6.27721 17.7392 7.15871C18.7837 8.04021 20.6132 8.25371 21.8232 7.63571Z" fill="white"/>
<path d="M26.2374 16.5995C25.1554 16.2815 24.2219 16.0065 23.9654 15.37C23.8169 15.001 23.8749 14.459 24.1269 13.7595C26.8099 11.2495 30.8239 7.205 30.7109 5.5615C30.6659 4.9045 29.6189 3.9635 28.9324 3.9635L28.8784 3.9655C28.1354 4.0165 26.9999 4.9995 25.7869 6.3305C25.6851 6.0252 25.5544 5.73035 25.3964 5.45C24.1239 3.2575 21.3264 2 17.7219 2C14.9194 2 11.7989 2.7725 8.69936 4.234C4.72086 6.11 1.74936 10.022 1.12936 14.201C0.668362 17.304 1.21936 21.997 6.45836 26.7385C8.78136 28.842 12.4394 30 16.7569 30H16.7584C20.2244 30 23.7359 29.2285 26.3939 27.885C29.3644 26.3825 30.9999 24.3045 30.9999 22.033C30.9999 18 28.2469 17.1905 26.2374 16.5995ZM28.9324 4.7135C29.2479 4.7135 29.9459 5.3685 29.9624 5.6125C30.0579 7.004 25.1009 11.936 21.7874 14.877L21.2224 14.3855L20.8529 14.063C23.3189 10.384 27.5359 4.8085 28.9324 4.7135M19.6329 15.53L20.3939 14.6575L21.2594 15.4125L20.4999 16.2845L19.6329 15.53M25.9429 26.992C23.4199 28.268 20.0729 29 16.7584 29H16.7574C12.6874 29 9.26836 27.9335 7.12936 25.997C2.21736 21.5525 1.69286 17.209 2.11736 14.3475C2.69036 10.4905 5.44136 6.876 9.12686 5.1385C12.0934 3.7395 15.0659 3 17.7219 3C20.9134 3 23.4584 4.1035 24.5309 5.952C24.7619 6.3495 24.9169 6.7745 25.0069 7.2195C22.7679 9.861 20.4939 13.246 20.0594 13.899L18.6709 15.491C17.9419 15.4835 17.2119 15.802 16.9869 16.5715C16.1579 19.399 14.3114 21.1525 14.3114 21.1525C14.3114 21.1525 18.9919 20.2275 19.8874 19.1765C20.3724 18.6075 20.6074 17.9275 20.6019 17.3075L22.0559 15.6405C22.2499 15.47 22.5384 15.2135 22.8939 14.8925C22.8919 15.2045 22.9349 15.4895 23.0369 15.7435C23.4744 16.8295 24.6789 17.1835 25.9544 17.5585C27.9429 18.1435 29.9994 18.748 29.9994 22.033C29.9999 23.908 28.5584 25.669 25.9429 26.992" fill="white"/>
<path d="M27.0604 19.9037C25.5854 18.7222 23.1924 18.7222 21.7174 19.9037C20.2424 21.0852 20.2429 23.0012 21.7174 24.1832C23.1919 25.3652 25.5849 25.3647 27.0604 24.1832C28.5359 23.0017 28.5354 21.0852 27.0604 19.9037ZM26.3339 23.6007C25.2604 24.4612 23.5174 24.4612 22.4444 23.6007C21.3709 22.7402 21.3709 21.3457 22.4444 20.4857C23.5174 19.6252 25.2604 19.6252 26.3339 20.4857C27.4074 21.3462 27.4074 22.7402 26.3339 23.6007" fill="white"/>
</svg>
