<svg width="59" height="52" viewBox="0 0 59 52" fill="none" xmlns="http://www.w3.org/2000/svg">
<path d="M10.8818 44.2016L6.74072 3.25H52.2592L48.1126 44.1951L29.4723 48.75L10.8818 44.2016Z" fill="#1572B6"/>
<path d="M29.5 45.2697L44.5634 41.5891L48.1071 6.59961H29.5V45.2697Z" fill="#33A9DC"/>
<path d="M29.5 21.4355H37.0409L37.5609 16.2924H29.5V11.2695H43.7891L43.6526 12.6167L42.2532 26.4584H29.5V21.4355Z" fill="#111111"/>
<path d="M29.535 34.4791L29.5092 34.4856L23.163 32.9744L22.7574 28.9688H17.0363L17.8346 36.8549L29.5074 39.7116L29.535 39.7051V34.4791Z" fill="#EBEBEB"/>
<path d="M36.5561 26.2451L35.8702 32.971L29.5148 34.4822V39.7082L41.1968 36.8547L41.2834 36.0065L42.2735 26.2451H36.5561Z" fill="#111111"/>
<path d="M29.5203 11.2695V16.2924H15.7549L15.6405 15.163L15.3806 12.6167L15.2441 11.2695H29.5203ZM29.5 21.4355V26.4584H23.2331L23.1188 25.329L22.8607 22.7827L22.7242 21.4355H29.5Z" fill="#EBEBEB"/>
</svg>
