<svg width="42" height="57" viewBox="0 0 42 57" fill="none" xmlns="http://www.w3.org/2000/svg">
<g clip-path="url(#clip0_458_2681)">
<path d="M10.5 57C16.296 57 21 52.744 21 47.5V38H10.5C4.704 38 0 42.256 0 47.5C0 52.744 4.704 57 10.5 57Z" fill="#0ACF83"/>
<path d="M0 28.5C0 23.256 4.704 19 10.5 19H21V38H10.5C4.704 38 0 33.744 0 28.5Z" fill="#A259FF"/>
<path d="M0 9.5C0 4.256 4.704 0 10.5 0H21V19H10.5C4.704 19 0 14.744 0 9.5Z" fill="#F24E1E"/>
<path d="M21 0H31.5C37.296 0 42 4.256 42 9.5C42 14.744 37.296 19 31.5 19H21V0Z" fill="#FF7262"/>
<path d="M42 28.5C42 33.744 37.296 38 31.5 38C25.704 38 21 33.744 21 28.5C21 23.256 25.704 19 31.5 19C37.296 19 42 23.256 42 28.5Z" fill="#1ABCFE"/>
</g>
<defs>
<clipPath id="clip0_458_2681">
<rect width="42" height="57" fill="white"/>
</clipPath>
</defs>
</svg>
