<svg width="42" height="18" viewBox="0 0 42 18" fill="none" xmlns="http://www.w3.org/2000/svg">
<path d="M1 3.60465V8.81395H2.15385V9.93023H3.30769V12.5349H5.61538V14.7674H7.92308V12.5349H14.0769V14.7674H16.3846V12.5349H18.6923V9.93023H19.8462V8.81395H21V3.23256H18.6923V5.09302H16V3.23256H14.4615V1H12.1538V3.23256H9.46154V1H7.15385V3.23256H5.61538V5.09302H3.30769V3.23256H1V3.60465ZM3.30769 14.7674H5.61538V17H3.30769V14.7674ZM16.3846 14.7674H18.6923V17H16.3846V14.7674Z" fill="#A57DCC"/>
<path d="M6.83691 7.32568H8.22153V9.55824H6.83691V7.32568Z" fill="black" stroke="black" stroke-linecap="round" stroke-linejoin="round"/>
<path d="M5.61538 12.5349H3.30769V10.3023M5.83962 5.09302V3.23256H7.15385M15.8877 5.09302V3.23256H14.5738M2.15385 8.81395H1V3.23256H3.30769V8.81395M18.6923 8.81395V3.23256H21V8.81395H19.8462M7.15385 3.23256V1H9.46154V3.23256M12.1538 3.23256V1H14.4615V3.23256M3.30769 8.81395H4.46154V9.93023H2.15385V8.81395M19.8462 8.81395V9.93023H17.5385V8.81395H18.6923M7.92308 12.5349V14.7674H5.61538V12.5349M16.3846 12.5349H18.6923V10.3023M14.0769 12.5349V14.7674H16.3846V12.5349M3.30769 14.7674H5.61538V17H3.30769V14.7674ZM16.3846 14.7674H18.6923V17H16.3846V14.7674Z" stroke="black" stroke-linecap="round" stroke-linejoin="round"/>
<path d="M13.8555 7.32568H15.2401V9.55824H13.8555V7.32568Z" fill="black" stroke="black" stroke-linecap="round" stroke-linejoin="round"/>
<path d="M7.92105 12.5352H14.0749M9.45951 3.23291H12.1518M3.30566 5.09338H5.61336M15.998 5.09338H18.6903" stroke="black" stroke-linecap="round" stroke-linejoin="round"/>
<path d="M30.5107 9.04395V12.6875C30.3877 12.8698 30.1917 13.0749 29.9229 13.3027C29.654 13.526 29.2826 13.722 28.8086 13.8906C28.3392 14.0547 27.7331 14.1367 26.9902 14.1367C26.3841 14.1367 25.8258 14.0319 25.3154 13.8223C24.8096 13.6081 24.3698 13.2982 23.9961 12.8926C23.627 12.4824 23.3398 11.9857 23.1348 11.4023C22.9342 10.8145 22.834 10.1491 22.834 9.40625V8.63379C22.834 7.89095 22.9206 7.22786 23.0938 6.64453C23.2715 6.0612 23.5312 5.56673 23.873 5.16113C24.2148 4.75098 24.6341 4.44108 25.1309 4.23145C25.6276 4.01725 26.1973 3.91016 26.8398 3.91016C27.6009 3.91016 28.2367 4.04232 28.7471 4.30664C29.262 4.56641 29.6631 4.92643 29.9502 5.38672C30.2419 5.84701 30.4287 6.37109 30.5107 6.95898H29.1914C29.1322 6.59896 29.0137 6.27083 28.8359 5.97461C28.6628 5.67839 28.4144 5.44141 28.0908 5.26367C27.7673 5.08138 27.3503 4.99023 26.8398 4.99023C26.3796 4.99023 25.9808 5.07454 25.6436 5.24316C25.3063 5.41178 25.0283 5.65332 24.8096 5.96777C24.5908 6.28223 24.4268 6.66276 24.3174 7.10938C24.2126 7.55599 24.1602 8.05957 24.1602 8.62012V9.40625C24.1602 9.98047 24.2262 10.4932 24.3584 10.9443C24.4951 11.3955 24.6888 11.7806 24.9395 12.0996C25.1901 12.4141 25.4886 12.6533 25.835 12.8174C26.1859 12.9814 26.5732 13.0635 26.9971 13.0635C27.4665 13.0635 27.847 13.0247 28.1387 12.9473C28.4303 12.8652 28.6582 12.7695 28.8223 12.6602C28.9863 12.5462 29.1117 12.4391 29.1982 12.3389V10.1104H26.8945V9.04395H30.5107ZM39.1992 8.32617V9.39941H33.8125V8.32617H39.1992ZM34.0176 4.04688V14H32.6982V4.04688H34.0176ZM40.3477 4.04688V14H39.0352V4.04688H40.3477Z" fill="white"/>
</svg>
