<svg width="37" height="37" viewBox="0 0 37 37" fill="none" xmlns="http://www.w3.org/2000/svg">
<path fill-rule="evenodd" clip-rule="evenodd" d="M18.0516 34.9083C27.3803 34.9083 34.9427 27.3459 34.9427 18.0171C34.9427 8.68841 27.3803 1.12598 18.0516 1.12598C8.72283 1.12598 1.1604 8.68841 1.1604 18.0171C1.1604 27.3459 8.72283 34.9083 18.0516 34.9083ZM13.5366 32.4467C14.9624 32.8924 16.4789 33.1326 18.0516 33.1326C19.6138 33.1326 21.1207 32.8956 22.5382 32.4556V28.7606C22.5386 28.1645 22.4203 27.5743 22.1901 27.0245C21.9599 26.4747 21.6224 25.9762 21.1974 25.5583C26.1592 24.6856 28.2354 21.6627 28.2354 18.0663C28.2354 16.3209 27.6548 14.7057 26.5146 13.4107C27.1588 11.4078 26.4915 9.69591 26.3395 9.30589C26.3321 9.28683 26.3258 9.27092 26.3211 9.2583C24.4208 9.08586 22.4502 10.5005 22.0526 10.8031C20.8807 10.4864 19.5506 10.314 18.0585 10.314C16.5735 10.314 15.2468 10.4794 14.0856 10.7926C13.9202 10.6624 11.7947 9.01548 9.75016 9.19847C9.7463 9.20838 9.74153 9.22036 9.73597 9.23435C9.58923 9.60311 8.8861 11.3701 9.57773 13.4213C8.45165 14.7127 7.87806 16.3139 7.87806 18.0558C7.87806 21.6451 9.94019 24.6644 14.8879 25.5512C14.2967 26.1248 13.8674 26.8638 13.6668 27.6908C12.7483 27.9195 10.9361 28.1518 10.007 26.7758C8.72261 24.8791 7.61413 24.1788 6.52676 24.7383C6.28538 25.0169 6.59755 25.2268 7.04144 25.5253C7.4388 25.7925 7.94171 26.1308 8.24755 26.6527C8.29442 26.7299 8.33858 26.8636 8.39479 27.0337C8.7226 28.0259 9.46028 30.2587 13.5366 29.7811V32.4467Z" fill="#997DF1"/>
</svg>
