<svg width="49" height="43" viewBox="0 0 49 43" fill="none" xmlns="http://www.w3.org/2000/svg">
<g clip-path="url(#clip0_458_2759)">
<path d="M27.7198 21.4637L32.4968 27.2772L38.9208 31.6475L40.0382 21.5004L38.9208 11.582L32.3737 15.4213L27.7198 21.4637Z" fill="#00832D"/>
<path d="M0 30.7036V39.3505C0 41.3248 1.50522 42.9278 3.35995 42.9278H11.4813L13.163 36.3945L11.4813 30.7036L5.90948 28.9131L0.000191406 30.7036H0Z" fill="#0066DA"/>
<path d="M11.4813 0L0 12.2242L5.90986 14.0105L11.4813 12.2242L13.1324 6.61079L11.4813 0Z" fill="#E94235"/>
<path d="M0.000244141 30.7067H11.4814V12.2236H0.000244141V30.7067Z" fill="#2684FC"/>
<path d="M46.255 5.17584L38.9205 11.5822V31.6475L46.2853 38.0788C47.3878 38.9983 49.0006 38.1603 49.0006 36.6681V6.55796C49.0006 5.04929 47.3493 4.21537 46.2548 5.17605" fill="#00AC47"/>
<path d="M27.7198 21.4639V30.7034H11.4813V42.9276H35.561C37.4157 42.9276 38.9207 41.3246 38.9207 39.3502V31.6477L27.7198 21.4639Z" fill="#00AC47"/>
<path d="M35.561 0H11.4813V12.2242H27.7198V21.4637L38.9209 11.5819V3.57756C38.9209 1.60282 37.4157 0.000203791 35.561 0.000203791" fill="#FFBA00"/>
</g>
<defs>
<clipPath id="clip0_458_2759">
<rect width="49" height="43" fill="white"/>
</clipPath>
</defs>
</svg>
