<svg width="59" height="57" viewBox="0 0 59 57" fill="none" xmlns="http://www.w3.org/2000/svg">
<g clip-path="url(#clip0_458_2690)">
<path d="M49.2051 0H9.79492C4.38534 0 0 4.33836 0 9.69V47.2188C0 52.5704 4.38534 56.9088 9.79492 56.9088H49.2051C54.6147 56.9088 59 52.5704 59 47.2188V9.69C59 4.33836 54.6147 0 49.2051 0Z" fill="#330000"/>
<path d="M28.5906 34.1524H19.4479L17.5875 39.8691C17.5622 39.9733 17.5009 40.0656 17.4142 40.1299C17.3275 40.1943 17.2208 40.2267 17.1125 40.2215H12.4817C12.2178 40.2215 12.1254 40.0779 12.2047 39.7906L20.1206 17.2373C20.1997 17.0025 20.2789 16.735 20.358 16.4348C20.4617 15.9122 20.5147 15.3814 20.5163 14.849C20.5109 14.8118 20.5144 14.7738 20.5264 14.7381C20.5384 14.7024 20.5587 14.67 20.5855 14.6434C20.6124 14.6168 20.6452 14.5967 20.6813 14.5848C20.7173 14.5729 20.7557 14.5694 20.7934 14.5747H27.0865C27.2709 14.5747 27.3765 14.6402 27.4032 14.7708L36.3876 39.8298C36.4668 40.0911 36.3876 40.2218 36.1502 40.2215H31.0047C30.9164 40.2312 30.8275 40.2088 30.7546 40.1583C30.6818 40.1079 30.63 40.0329 30.609 39.9475L28.5906 34.1524ZM20.8726 29.2189H27.1262L27.037 28.9278L26.8939 28.4668L26.7918 28.143L26.6288 27.6332L26.2824 26.56L25.9777 25.6086L25.1865 23.1302C24.9896 22.5141 24.8006 21.8956 24.6196 21.2747L24.4749 20.7709L24.3057 20.1751L24.0476 19.2517L23.9992 19.0777H23.9598C23.7617 20.0176 23.5206 20.948 23.237 21.8662L22.6498 23.7349L22.3267 24.7672L22.0005 25.8124C21.9415 26.0012 21.883 26.1879 21.8242 26.3724L21.6491 26.9191L21.4749 27.4531L21.3015 27.9738L21.1291 28.4816C21.072 28.6487 21.0148 28.8136 20.9579 28.9763L20.8726 29.2189ZM41.7303 18.7252C41.3266 18.7413 40.9241 18.6728 40.549 18.5244C40.1739 18.376 39.8346 18.1509 39.5535 17.8639C39.2731 17.5644 39.0553 17.213 38.9127 16.83C38.77 16.447 38.7053 16.0398 38.7222 15.632C38.7079 15.2282 38.7798 14.826 38.9332 14.4516C39.0867 14.0772 39.3182 13.739 39.6127 13.4591C40.1809 12.9196 40.9375 12.6177 41.725 12.6162L41.8093 12.6171C42.7593 12.6171 43.5049 12.8976 44.0458 13.4589C44.3188 13.7506 44.531 14.0926 44.6702 14.4655C44.8094 14.8384 44.8729 15.2348 44.8571 15.632C44.8737 16.0414 44.8069 16.45 44.6607 16.8335C44.5145 17.2169 44.292 17.5674 44.0062 17.8641C43.7176 18.1454 43.3751 18.3668 42.9988 18.5152C42.6225 18.6636 42.2199 18.736 41.8149 18.7282L41.7303 18.7252ZM38.9992 39.8298V21.1138C38.9992 20.8789 39.1043 20.7613 39.3159 20.7613H44.1843C44.3952 20.7613 44.5008 20.8787 44.501 21.1138V39.8298C44.501 40.0911 44.3954 40.2218 44.1843 40.2215H39.3555C39.1306 40.2215 39.0121 40.1043 39.0004 39.87L38.9992 39.8298Z" fill="#FF9A00"/>
</g>
<defs>
<clipPath id="clip0_458_2690">
<rect width="59" height="57" fill="white"/>
</clipPath>
</defs>
</svg>
