<svg width="37" height="37" viewBox="0 0 37 37" fill="none" xmlns="http://www.w3.org/2000/svg">
<path fill-rule="evenodd" clip-rule="evenodd" d="M18.1205 34.9083C27.4493 34.9083 35.0117 27.3459 35.0117 18.0171C35.0117 8.68841 27.4493 1.12598 18.1205 1.12598C8.7918 1.12598 1.22937 8.68841 1.22937 18.0171C1.22937 27.3459 8.7918 34.9083 18.1205 34.9083ZM13.4301 18.0171C13.4301 15.4342 15.538 13.3263 18.1209 13.3263C20.7039 13.3263 22.8117 15.4342 22.8117 18.0171C22.8117 20.6001 20.7039 22.708 18.1209 22.708C15.538 22.708 13.4301 20.6001 13.4301 18.0171ZM10.9035 18.0171C10.9035 22.0112 14.1269 25.2346 18.1209 25.2346C22.115 25.2346 25.3384 22.0112 25.3384 18.0171C25.3384 14.0231 22.115 10.7997 18.1209 10.7997C14.1269 10.7997 10.9035 14.0231 10.9035 18.0171ZM23.9484 10.5041C23.9484 11.4366 24.7014 12.1897 25.634 12.1897C25.8554 12.19 26.0747 12.1466 26.2794 12.0619C26.484 11.9773 26.6699 11.8532 26.8265 11.6966C26.9831 11.54 27.1072 11.3541 27.1918 11.1495C27.2764 10.9448 27.3199 10.7255 27.3196 10.5041C27.3196 9.57156 26.5665 8.8185 25.634 8.8185C24.7014 8.8185 23.9484 9.57156 23.9484 10.5041Z" fill="#C8B6FF"/>
</svg>
