<svg width="51" height="53" viewBox="0 0 51 53" fill="none" xmlns="http://www.w3.org/2000/svg">
<g clip-path="url(#clip0_458_2728)">
<path d="M0 0H51V53H0V0Z" fill="#F7DF1E"/>
<path d="M13.4099 44.2902L17.3126 41.8356C18.0656 43.2229 18.7505 44.3968 20.3935 44.3968C21.9683 44.3968 22.9614 43.7567 22.9614 41.2665V24.3317H27.754V41.3369C27.754 46.4955 24.8442 48.8436 20.5989 48.8436C16.7649 48.8436 14.5394 46.7801 13.4097 44.2898M30.3572 43.7565L34.2595 41.4085C35.2869 43.1519 36.622 44.4326 38.984 44.4326C40.97 44.4326 42.2362 43.4008 42.2362 41.9776C42.2362 40.2701 40.9353 39.6651 38.7443 38.6693L37.5464 38.1351C34.0886 36.6058 31.795 34.6846 31.795 30.6288C31.795 26.8931 34.5336 24.0469 38.813 24.0469C41.8599 24.0469 44.0509 25.1499 45.6255 28.0316L41.8938 30.5222C41.072 28.9924 40.1823 28.3877 38.8128 28.3877C37.4092 28.3877 36.519 29.3127 36.519 30.5222C36.519 32.0163 37.4092 32.6215 39.4631 33.5465L40.6612 34.08C44.7352 35.8947 47.0288 37.7445 47.0288 41.9066C47.0288 46.3897 43.6397 48.8442 39.0866 48.8442C34.6362 48.8442 31.7605 46.6385 30.357 43.7567" fill="#111111"/>
</g>
<defs>
<clipPath id="clip0_458_2728">
<rect width="51" height="53" fill="white"/>
</clipPath>
</defs>
</svg>
