<svg width="28" height="28" viewBox="0 0 28 28" fill="none" xmlns="http://www.w3.org/2000/svg">
<g clip-path="url(#clip0_458_2398)">
<path d="M13.1705 27.1682V23.7242C13.1705 23.5035 13.2581 23.292 13.4141 23.136C13.5701 22.98 13.7817 22.8923 14.0023 22.8923C14.2229 22.8923 14.4345 22.98 14.5905 23.136C14.7465 23.292 14.8342 23.5035 14.8342 23.7242V27.1682C14.8342 27.3888 14.7465 27.6004 14.5905 27.7564C14.4345 27.9124 14.2229 28 14.0023 28C13.7817 28 13.5701 27.9124 13.4141 27.7564C13.2581 27.6004 13.1705 27.3888 13.1705 27.1682V27.1682ZM22.7255 23.8968L20.2907 21.4632C20.2102 21.3867 20.1458 21.2949 20.1013 21.1931C20.0568 21.0914 20.0332 20.9818 20.0318 20.8707C20.0303 20.7597 20.0511 20.6495 20.093 20.5466C20.1348 20.4438 20.1968 20.3503 20.2753 20.2718C20.3538 20.1933 20.4473 20.1313 20.5501 20.0895C20.653 20.0476 20.7632 20.0268 20.8742 20.0283C20.9853 20.0297 21.0949 20.0533 21.1966 20.0978C21.2984 20.1423 21.3902 20.2067 21.4667 20.2872L23.8992 22.7243C24.0355 22.8839 24.1064 23.089 24.0978 23.2987C24.0893 23.5084 24.0018 23.707 23.8529 23.8549C23.704 24.0028 23.5047 24.0889 23.295 24.096C23.0853 24.1031 22.8806 24.0307 22.722 23.8933L22.7232 23.8945L22.7255 23.8968ZM4.10317 23.8968C4.02556 23.8198 3.96397 23.7282 3.92194 23.6273C3.8799 23.5264 3.85826 23.4182 3.85826 23.3088C3.85826 23.1995 3.8799 23.0913 3.92194 22.9904C3.96397 22.8894 4.02556 22.7978 4.10317 22.7208L6.538 20.286C6.61447 20.2055 6.70629 20.1411 6.80803 20.0966C6.90978 20.0522 7.0194 20.0285 7.13043 20.0271C7.24147 20.0257 7.35166 20.0465 7.45452 20.0883C7.55738 20.1301 7.65082 20.1921 7.72934 20.2707C7.80786 20.3492 7.86986 20.4426 7.91169 20.5455C7.95352 20.6483 7.97434 20.7585 7.97291 20.8696C7.97148 20.9806 7.94783 21.0902 7.90337 21.192C7.8589 21.2937 7.79451 21.3855 7.714 21.462L5.27917 23.8957C5.20217 23.9733 5.11057 24.0349 5.00965 24.0769C4.90873 24.1189 4.80049 24.1406 4.69117 24.1406C4.58184 24.1406 4.4736 24.1189 4.37269 24.0769C4.27177 24.0349 4.18017 23.9733 4.10317 23.8957V23.8968ZM7.37333 13.9977C7.37333 12.2392 8.07187 10.5528 9.31526 9.30943C10.5587 8.06603 12.2451 7.3675 14.0035 7.3675C15.7619 7.3675 17.4483 8.06603 18.6917 9.30943C19.9351 10.5528 20.6337 12.2392 20.6337 13.9977C20.6337 15.7561 19.9351 17.4425 18.6917 18.6859C17.4483 19.9293 15.7619 20.6278 14.0035 20.6278C12.2451 20.6278 10.5587 19.9293 9.31526 18.6859C8.07187 17.4425 7.37333 15.7561 7.37333 13.9977V13.9977ZM9.03583 13.9977C9.0215 14.6592 9.13942 15.317 9.38268 15.9324C9.62595 16.5478 9.98966 17.1084 10.4525 17.5814C10.9153 18.0543 11.4679 18.4301 12.0779 18.6867C12.6879 18.9432 13.3429 19.0753 14.0047 19.0753C14.6664 19.0753 15.3215 18.9432 15.9314 18.6867C16.5414 18.4301 17.094 18.0543 17.5569 17.5814C18.0197 17.1084 18.3834 16.5478 18.6266 15.9324C18.8699 15.317 18.9878 14.6592 18.9735 13.9977C18.9453 12.6985 18.4095 11.462 17.4807 10.5532C16.5519 9.6443 15.3041 9.13535 14.0047 9.13535C12.7052 9.13535 11.4574 9.6443 10.5286 10.5532C9.59985 11.462 9.06399 12.6985 9.03583 13.9977V13.9977ZM23.7253 14.8295C23.6161 14.8295 23.5079 14.808 23.407 14.7662C23.3061 14.7244 23.2144 14.6631 23.1371 14.5859C23.0599 14.5086 22.9986 14.4169 22.9568 14.316C22.915 14.2151 22.8935 14.1069 22.8935 13.9977C22.8935 13.8884 22.915 13.7803 22.9568 13.6793C22.9986 13.5784 23.0599 13.4867 23.1371 13.4095C23.2144 13.3322 23.3061 13.271 23.407 13.2292C23.5079 13.1873 23.6161 13.1658 23.7253 13.1658H27.1693C27.2786 13.1658 27.3867 13.1873 27.4877 13.2292C27.5886 13.271 27.6803 13.3322 27.7575 13.4095C27.8348 13.4867 27.896 13.5784 27.9378 13.6793C27.9796 13.7803 28.0012 13.8884 28.0012 13.9977C28.0012 14.1069 27.9796 14.2151 27.9378 14.316C27.896 14.4169 27.8348 14.5086 27.7575 14.5859C27.6803 14.6631 27.5886 14.7244 27.4877 14.7662C27.3867 14.808 27.2786 14.8295 27.1693 14.8295H23.7253ZM0.831833 14.8295C0.722595 14.8295 0.614427 14.808 0.513505 14.7662C0.412582 14.7244 0.320881 14.6631 0.243638 14.5859C0.166395 14.5086 0.105123 14.4169 0.0633195 14.316C0.021516 14.2151 0 14.1069 0 13.9977C0 13.8884 0.021516 13.7803 0.0633195 13.6793C0.105123 13.5784 0.166395 13.4867 0.243638 13.4095C0.320881 13.3322 0.412582 13.271 0.513505 13.2292C0.614427 13.1873 0.722595 13.1658 0.831833 13.1658H4.277C4.38624 13.1658 4.49441 13.1873 4.59533 13.2292C4.69625 13.271 4.78795 13.3322 4.86519 13.4095C4.94244 13.4867 5.00371 13.5784 5.04551 13.6793C5.08732 13.7803 5.10883 13.8884 5.10883 13.9977C5.10883 14.1069 5.08732 14.2151 5.04551 14.316C5.00371 14.4169 4.94244 14.5086 4.86519 14.5859C4.78795 14.6631 4.69625 14.7244 4.59533 14.7662C4.49441 14.808 4.38624 14.8295 4.277 14.8295H0.831833ZM20.2883 7.70933C20.2107 7.63233 20.1491 7.54073 20.1071 7.43981C20.0651 7.3389 20.0434 7.23066 20.0434 7.12133C20.0434 7.01201 20.0651 6.90377 20.1071 6.80285C20.1491 6.70193 20.2107 6.61033 20.2883 6.53333L22.7232 4.0985C22.7996 4.01799 22.8915 3.9536 22.9932 3.90913C23.0949 3.86467 23.2046 3.84102 23.3156 3.83959C23.4266 3.83816 23.5368 3.85898 23.6397 3.90081C23.7425 3.94264 23.836 4.00464 23.9145 4.08316C23.993 4.16168 24.055 4.25512 24.0969 4.35798C24.1387 4.46084 24.1595 4.57103 24.1581 4.68207C24.1566 4.7931 24.133 4.90272 24.0885 5.00447C24.0441 5.10621 23.9797 5.19803 23.8992 5.2745L21.4643 7.70933C21.3873 7.78694 21.2957 7.84853 21.1948 7.89056C21.0939 7.9326 20.9857 7.95423 20.8763 7.95423C20.767 7.95423 20.6588 7.9326 20.5579 7.89056C20.4569 7.84853 20.3653 7.78694 20.2883 7.70933V7.70933ZM6.53567 7.70933L4.10317 5.27683C4.02265 5.20036 3.95827 5.10855 3.9138 5.0068C3.86933 4.90505 3.84569 4.79543 3.84426 4.6844C3.84283 4.57337 3.86364 4.46317 3.90548 4.36031C3.94731 4.25745 4.00931 4.16401 4.08783 4.08549C4.16634 4.00698 4.25979 3.94497 4.36265 3.90314C4.46551 3.86131 4.5757 3.8405 4.68673 3.84192C4.79776 3.84335 4.90738 3.867 5.00913 3.91147C5.11088 3.95593 5.2027 4.02032 5.27917 4.10083L7.714 6.53567C7.79451 6.61214 7.8589 6.70395 7.90337 6.8057C7.94783 6.90745 7.97148 7.01707 7.97291 7.1281C7.97434 7.23913 7.95352 7.34933 7.91169 7.45219C7.86986 7.55505 7.80786 7.64849 7.72934 7.72701C7.65082 7.80552 7.55738 7.86753 7.45452 7.90936C7.35166 7.95119 7.24147 7.972 7.13043 7.97057C7.0194 7.96915 6.90978 7.9455 6.80803 7.90103C6.70629 7.85657 6.61447 7.79218 6.538 7.71167L6.53567 7.70933ZM13.1682 4.27467V0.831833C13.1682 0.611217 13.2558 0.399637 13.4118 0.243638C13.5678 0.0876393 13.7794 0 14 0C14.2206 0 14.4322 0.0876393 14.5882 0.243638C14.7442 0.399637 14.8318 0.611217 14.8318 0.831833V4.27583C14.8318 4.49645 14.7442 4.70803 14.5882 4.86403C14.4322 5.02003 14.2206 5.10767 14 5.10767C13.7794 5.10767 13.5678 5.02003 13.4118 4.86403C13.2558 4.70803 13.1682 4.49645 13.1682 4.27583V4.27467Z" fill="#111111"/>
</g>
<defs>
<clipPath id="clip0_458_2398">
<rect width="28" height="28" fill="white"/>
</clipPath>
</defs>
</svg>
