<svg width="37" height="37" viewBox="0 0 37 37" fill="none" xmlns="http://www.w3.org/2000/svg">
<g clip-path="url(#clip0_413_551)">
<path d="M18.0862 0.720703C8.53348 0.720703 0.789673 8.46451 0.789673 18.0173C0.789673 27.57 8.53348 35.3138 18.0862 35.3138C27.639 35.3138 35.3828 27.57 35.3828 18.0173C35.3828 8.46451 27.639 0.720703 18.0862 0.720703ZM13.8522 25.1863H10.3496V13.9147H13.8522V25.1863ZM12.0793 12.531C10.973 12.531 10.2577 11.7473 10.2577 10.7779C10.2577 9.78878 10.9946 9.02845 12.1243 9.02845C13.254 9.02845 13.9459 9.78878 13.9675 10.7779C13.9675 11.7473 13.254 12.531 12.0793 12.531ZM26.6444 25.1863H23.1419V18.9397C23.1419 17.4857 22.6338 16.4984 21.3672 16.4984C20.3996 16.4984 19.8249 17.1668 19.5708 17.8101C19.4772 18.0389 19.4537 18.3632 19.4537 18.6857V25.1845H15.9494V17.5092C15.9494 16.102 15.9043 14.9255 15.8575 13.9129H18.9006L19.061 15.4786H19.1312C19.5925 14.7435 20.7222 13.6589 22.6122 13.6589C24.9166 13.6589 26.6444 15.203 26.6444 18.5217V25.1863Z" fill="#C8B6FF"/>
</g>
<defs>
<clipPath id="clip0_413_551">
<rect width="36.0345" height="36.0345" fill="white" transform="translate(0.0689697)"/>
</clipPath>
</defs>
</svg>
