<svg width="50" height="50" viewBox="0 0 50 50" fill="none" xmlns="http://www.w3.org/2000/svg">
<circle cx="25" cy="25" r="24.5" fill="#1B1B2D" stroke="#C8B6FF"/>
<path d="M19.695 19.075V32.27H16.53C16.1922 32.27 15.8682 32.1365 15.6284 31.8986C15.3887 31.6607 15.2526 31.3377 15.25 31V21.41M30.305 19.075V32.27H33.47C33.8078 32.27 34.1318 32.1365 34.3716 31.8986C34.6113 31.6607 34.7474 31.3377 34.75 31V21.41" stroke="#C8B6FF" stroke-miterlimit="10"/>
<path d="M25 28.7249L34.75 21.4999V19.6999C34.7491 19.3358 34.6473 18.979 34.4558 18.6692C34.2644 18.3594 33.9908 18.1088 33.6655 17.9451C33.3402 17.7814 32.9759 17.7111 32.613 17.742C32.2502 17.7728 31.903 17.9037 31.61 18.1199L25 23.0299L18.39 18.1199C18.097 17.9037 17.7498 17.7728 17.387 17.742C17.0241 17.7111 16.6598 17.7814 16.3345 17.9451C16.0092 18.1088 15.7356 18.3594 15.5442 18.6692C15.3527 18.979 15.2509 19.3358 15.25 19.6999V21.4999L25 28.7249Z" stroke="#C8B6FF" stroke-miterlimit="10"/>
</svg>
