<svg width="32" height="32" viewBox="0 0 32 32" fill="none" xmlns="http://www.w3.org/2000/svg">
<path fill-rule="evenodd" clip-rule="evenodd" d="M9.33333 5.33333H5.33333V9.33333H9.33333V5.33333ZM5.33333 4C4.97971 4 4.64057 4.14048 4.39052 4.39052C4.14048 4.64057 4 4.97971 4 5.33333V9.33333C4 9.68696 4.14048 10.0261 4.39052 10.2761C4.64057 10.5262 4.97971 10.6667 5.33333 10.6667H9.33333C9.68696 10.6667 10.0261 10.5262 10.2761 10.2761C10.5262 10.0261 10.6667 9.68696 10.6667 9.33333V5.33333C10.6667 4.97971 10.5262 4.64057 10.2761 4.39052C10.0261 4.14048 9.68696 4 9.33333 4H5.33333ZM9.33333 14H5.33333V18H9.33333V14ZM5.33333 12.6667C4.97971 12.6667 4.64057 12.8071 4.39052 13.0572C4.14048 13.3072 4 13.6464 4 14V18C4 18.3536 4.14048 18.6928 4.39052 18.9428C4.64057 19.1929 4.97971 19.3333 5.33333 19.3333H9.33333C9.68696 19.3333 10.0261 19.1929 10.2761 18.9428C10.5262 18.6928 10.6667 18.3536 10.6667 18V14C10.6667 13.6464 10.5262 13.3072 10.2761 13.0572C10.0261 12.8071 9.68696 12.6667 9.33333 12.6667H5.33333ZM9.33333 22.6667H5.33333V26.6667H9.33333V22.6667ZM5.33333 21.3333C4.97971 21.3333 4.64057 21.4738 4.39052 21.7239C4.14048 21.9739 4 22.313 4 22.6667V26.6667C4 27.0203 4.14048 27.3594 4.39052 27.6095C4.64057 27.8595 4.97971 28 5.33333 28H9.33333C9.68696 28 10.0261 27.8595 10.2761 27.6095C10.5262 27.3594 10.6667 27.0203 10.6667 26.6667V22.6667C10.6667 22.313 10.5262 21.9739 10.2761 21.7239C10.0261 21.4738 9.68696 21.3333 9.33333 21.3333H5.33333ZM18 5.33333H14V9.33333H18V5.33333ZM14 4C13.6464 4 13.3072 4.14048 13.0572 4.39052C12.8071 4.64057 12.6667 4.97971 12.6667 5.33333V9.33333C12.6667 9.68696 12.8071 10.0261 13.0572 10.2761C13.3072 10.5262 13.6464 10.6667 14 10.6667H18C18.3536 10.6667 18.6928 10.5262 18.9428 10.2761C19.1929 10.0261 19.3333 9.68696 19.3333 9.33333V5.33333C19.3333 4.97971 19.1929 4.64057 18.9428 4.39052C18.6928 4.14048 18.3536 4 18 4H14ZM18 14H14V18H18V14ZM14 12.6667C13.6464 12.6667 13.3072 12.8071 13.0572 13.0572C12.8071 13.3072 12.6667 13.6464 12.6667 14V18C12.6667 18.3536 12.8071 18.6928 13.0572 18.9428C13.3072 19.1929 13.6464 19.3333 14 19.3333H18C18.3536 19.3333 18.6928 19.1929 18.9428 18.9428C19.1929 18.6928 19.3333 18.3536 19.3333 18V14C19.3333 13.6464 19.1929 13.3072 18.9428 13.0572C18.6928 12.8071 18.3536 12.6667 18 12.6667H14ZM18 22.6667H14V26.6667H18V22.6667ZM14 21.3333C13.6464 21.3333 13.3072 21.4738 13.0572 21.7239C12.8071 21.9739 12.6667 22.313 12.6667 22.6667V26.6667C12.6667 27.0203 12.8071 27.3594 13.0572 27.6095C13.3072 27.8595 13.6464 28 14 28H18C18.3536 28 18.6928 27.8595 18.9428 27.6095C19.1929 27.3594 19.3333 27.0203 19.3333 26.6667V22.6667C19.3333 22.313 19.1929 21.9739 18.9428 21.7239C18.6928 21.4738 18.3536 21.3333 18 21.3333H14ZM26.6667 5.33333H22.6667V9.33333H26.6667V5.33333ZM22.6667 4C22.313 4 21.9739 4.14048 21.7239 4.39052C21.4738 4.64057 21.3333 4.97971 21.3333 5.33333V9.33333C21.3333 9.68696 21.4738 10.0261 21.7239 10.2761C21.9739 10.5262 22.313 10.6667 22.6667 10.6667H26.6667C27.0203 10.6667 27.3594 10.5262 27.6095 10.2761C27.8595 10.0261 28 9.68696 28 9.33333V5.33333C28 4.97971 27.8595 4.64057 27.6095 4.39052C27.3594 4.14048 27.0203 4 26.6667 4H22.6667ZM26.6667 14H22.6667V18H26.6667V14ZM22.6667 12.6667C22.313 12.6667 21.9739 12.8071 21.7239 13.0572C21.4738 13.3072 21.3333 13.6464 21.3333 14V18C21.3333 18.3536 21.4738 18.6928 21.7239 18.9428C21.9739 19.1929 22.313 19.3333 22.6667 19.3333H26.6667C27.0203 19.3333 27.3594 19.1929 27.6095 18.9428C27.8595 18.6928 28 18.3536 28 18V14C28 13.6464 27.8595 13.3072 27.6095 13.0572C27.3594 12.8071 27.0203 12.6667 26.6667 12.6667H22.6667ZM26.6667 22.6667H22.6667V26.6667H26.6667V22.6667ZM22.6667 21.3333C22.313 21.3333 21.9739 21.4738 21.7239 21.7239C21.4738 21.9739 21.3333 22.313 21.3333 22.6667V26.6667C21.3333 27.0203 21.4738 27.3594 21.7239 27.6095C21.9739 27.8595 22.313 28 22.6667 28H26.6667C27.0203 28 27.3594 27.8595 27.6095 27.6095C27.8595 27.3594 28 27.0203 28 26.6667V22.6667C28 22.313 27.8595 21.9739 27.6095 21.7239C27.3594 21.4738 27.0203 21.3333 26.6667 21.3333H22.6667Z" fill="white"/>
</svg>
