<svg width="28" height="28" viewBox="0 0 28 28" fill="none" xmlns="http://www.w3.org/2000/svg">
<path d="M18.7768 16.496C19.172 14.9294 18.0067 13.2846 16.174 12.8223C14.3412 12.3599 12.5351 13.2551 12.1399 14.8217C11.7447 16.3882 12.91 18.033 14.7428 18.4954C16.5755 18.9577 18.3816 18.0626 18.7768 16.496Z" stroke="black" stroke-linecap="round" stroke-linejoin="round"/>
<path d="M18.7764 16.496L21.9637 3.82715C21.4352 5.92015 25.6918 4.89465 25.1878 6.89256" stroke="black" stroke-linecap="round" stroke-linejoin="round"/>
<path d="M18.6013 10.0205C17.3063 9.24915 15.7808 8.95917 14.2931 9.20153C12.8054 9.4439 11.4508 10.2031 10.4676 11.3456C9.48432 12.4881 8.93544 13.9407 8.91745 15.4479C8.89946 16.9551 9.41351 18.4204 10.3692 19.586C11.3249 20.7516 12.661 21.543 14.1425 21.8208C15.624 22.0986 17.156 21.8451 18.469 21.1049C19.7821 20.3647 20.7921 19.1852 21.3214 17.7738C21.8507 16.3625 21.8654 14.8097 21.3628 13.3886" stroke="black" stroke-linecap="round" stroke-linejoin="round"/>
<path d="M19.3708 6.96197C17.2464 5.95399 14.8235 5.77068 12.5717 6.44758C10.3199 7.12448 8.39962 8.61337 7.18317 10.6256C5.96672 12.6378 5.54074 15.03 5.98781 17.3385C6.43488 19.647 7.72316 21.7072 9.60289 23.1198C11.4826 24.5324 13.8199 25.1967 16.1616 24.984C18.5033 24.7713 20.6826 23.6967 22.277 21.9685C23.8715 20.2403 24.7674 17.9817 24.7912 15.6304C24.815 13.2792 23.965 11.0029 22.4059 9.2428" stroke="black" stroke-linecap="round" stroke-linejoin="round"/>
<path d="M15.3124 2.98926C11.9862 2.98926 8.79614 4.31061 6.44412 6.66263C4.0921 9.01465 2.77075 12.2047 2.77075 15.5309" stroke="black" stroke-linecap="round" stroke-linejoin="round"/>
</svg>
