<svg width="36" height="43" viewBox="0 0 36 43" fill="none" xmlns="http://www.w3.org/2000/svg">
<path d="M6.21284 7.53753C7.37379 8.62187 7.81354 8.54528 10.0053 8.37732L30.6678 6.95706C31.1076 6.95706 30.7417 6.45318 30.594 6.36853L27.1615 3.52665C26.5084 2.93812 25.6288 2.27434 23.9484 2.43424L3.94606 4.11384C3.21313 4.19043 3.06655 4.611 3.35972 4.94692L6.21284 7.53753ZM7.45236 13.06V37.9664C7.45236 39.3034 8.03283 39.8073 9.34623 39.7226L32.0551 38.2177C33.3685 38.133 33.521 37.2167 33.521 36.1256V11.3872C33.521 10.2948 33.1539 9.71428 32.3483 9.79893L8.62035 11.3872C7.74084 11.4718 7.45353 11.9676 7.45353 13.0533L7.45236 13.06ZM29.8681 14.3889C30.0147 15.1454 29.8681 15.8939 29.2079 15.9852L28.1149 16.2378V34.622C27.1615 35.2105 26.2891 35.5465 25.562 35.5465C24.3893 35.5465 24.0962 35.1259 23.2225 33.8736L16.0645 20.9971V33.4544L18.3301 34.0429C18.3301 34.0429 18.3301 35.5478 16.5043 35.5478L11.4653 35.8837C11.3187 35.5478 11.4653 34.708 11.9789 34.5468L13.2923 34.1262V17.6594L11.4664 17.4915C11.3198 16.735 11.6869 15.6506 12.706 15.5673L18.1108 15.1468L25.562 28.1912V16.6503L23.6623 16.3977C23.5157 15.4813 24.0962 14.8095 24.8291 14.7316L29.8681 14.3889ZM2.26678 1.85512L23.0759 0.0989317C25.6288 -0.15368 26.2891 0.0142801 27.8945 1.35124L34.54 6.70445C35.633 7.62083 36 7.87345 36 8.87448V38.219C36 40.0599 35.4137 41.1442 33.3732 41.3122L9.19848 42.9851C7.67165 43.0697 6.93873 42.8171 6.13193 41.6481L1.23952 34.3694C0.365875 33.0324 0 32.0314 0 30.8638V4.78164C0 3.27673 0.586338 2.02442 2.26561 1.85646L2.26678 1.85512Z" fill="#111111"/>
</svg>
