<svg width="50" height="50" viewBox="0 0 50 50" fill="none" xmlns="http://www.w3.org/2000/svg">
<circle cx="25" cy="25" r="24.5" fill="#1B1B2D" stroke="#C8B6FF"/>
<path d="M25 23.5H26.5V25H25V23.5ZM28 23.5H29.5V25H28V23.5ZM31 23.5H32.5V25H31V23.5ZM25 26.5H26.5V28H25V26.5ZM28 26.5H29.5V28H28V26.5ZM31 26.5H32.5V28H31V26.5ZM25 29.5H26.5V31H25V29.5ZM28 29.5H29.5V31H28V29.5ZM31 29.5H32.5V31H31V29.5ZM25 20.5H32.5V22H25V20.5Z" fill="#C8B6FF"/>
<path d="M34 17.5H23.5V16.75C23.4996 16.3523 23.3414 15.971 23.0602 15.6898C22.779 15.4086 22.3977 15.2504 22 15.25H19C18.6023 15.2504 18.221 15.4086 17.9398 15.6898C17.6586 15.971 17.5004 16.3523 17.5 16.75V17.5H16C15.6023 17.5004 15.221 17.6586 14.9398 17.9398C14.6586 18.221 14.5004 18.6023 14.5 19V32.5C14.5004 32.8977 14.6586 33.279 14.9398 33.5602C15.221 33.8414 15.6023 33.9996 16 34H34C34.3977 33.9996 34.779 33.8414 35.0602 33.5602C35.3414 33.279 35.4996 32.8977 35.5 32.5V19C35.4996 18.6023 35.3414 18.221 35.0602 17.9398C34.779 17.6586 34.3977 17.5004 34 17.5V17.5ZM19 16.75H22V29.5H19V16.75ZM34 32.5H16V19H17.5V29.5C17.5004 29.8977 17.6586 30.279 17.9398 30.5602C18.221 30.8414 18.6023 30.9996 19 31H22C22.3977 30.9996 22.779 30.8414 23.0602 30.5602C23.3414 30.279 23.4996 29.8977 23.5 29.5V19H34V32.5Z" fill="#C8B6FF"/>
</svg>
