<svg width="37" height="37" viewBox="0 0 37 37" fill="none" xmlns="http://www.w3.org/2000/svg">
<path d="M3.37793 4.18666V31.8425C3.37811 31.9025 3.39601 31.9611 3.42937 32.011C3.46274 32.0609 3.51008 32.0998 3.56547 32.1228C3.62086 32.1459 3.68182 32.1521 3.74072 32.1407C3.79962 32.1292 3.85384 32.1007 3.89656 32.0585L18.2966 18.0153L3.89656 3.97062C3.85384 3.9285 3.79962 3.89993 3.74072 3.88849C3.68182 3.87705 3.62086 3.88325 3.56547 3.90633C3.51008 3.9294 3.46274 3.96831 3.42937 4.01818C3.39601 4.06805 3.37811 4.12666 3.37793 4.18666ZM24.3344 12.2449L6.27863 2.2972L6.26737 2.29087C5.95633 2.12198 5.66077 2.5428 5.91551 2.78769L20.0692 16.3215L24.3344 12.2449ZM5.91692 33.2429C5.66077 33.4878 5.95633 33.9086 6.26877 33.7397L6.28003 33.7334L24.3344 23.7857L20.0692 19.7077L5.91692 33.2429ZM31.6235 16.256L26.5814 13.4792L21.8405 18.0153L26.5814 22.5493L31.6235 19.7746C32.995 19.0167 32.995 17.0139 31.6235 16.256Z" fill="#997DF1"/>
</svg>
