<svg width="59" height="47" viewBox="0 0 59 47" fill="none" xmlns="http://www.w3.org/2000/svg">
<g clip-path="url(#clip0_458_2734)">
<path d="M48.5098 15.2181C47.8819 15.0254 47.2486 14.8469 46.6107 14.6827C46.7179 14.2911 46.8165 13.9041 46.9041 13.524C48.3417 7.28187 47.4019 2.25308 44.1917 0.597359C41.1138 -0.989922 36.0801 0.665179 30.9964 4.62246C30.4954 5.01316 30.0055 5.41512 29.5272 5.82796C29.207 5.55344 28.8811 5.28424 28.5498 5.02051C23.2218 0.789276 17.8814 -0.994045 14.6746 0.666416C11.5995 2.25864 10.6889 6.98606 11.9832 12.9019C12.112 13.4878 12.2574 14.0707 12.4193 14.6499C11.6633 14.8421 10.9339 15.0466 10.2358 15.2642C3.98918 17.2123 0 20.265 0 23.4315C0 26.7019 4.28257 29.9823 10.7887 31.9713C11.3162 32.1319 11.848 32.2807 12.3838 32.4176C12.2098 33.0415 12.0553 33.6697 11.9205 34.3013C10.6866 40.1145 11.6502 44.7302 14.717 46.3123C17.8846 47.9462 23.2011 46.2669 28.3776 42.2194C28.7974 41.8903 29.2079 41.5519 29.6088 41.2045C30.1268 41.6516 30.6586 42.0856 31.2036 42.5061C36.2182 46.3655 41.1705 47.9239 44.2343 46.3374C47.3989 44.6988 48.4275 39.7403 47.0921 33.7076C46.9869 33.235 46.869 32.7647 46.7384 32.2972C47.1117 32.1983 47.4782 32.0964 47.8354 31.9905C54.5992 29.9862 59 26.7456 59 23.4315C59 20.2535 54.882 17.1801 48.5098 15.2181ZM47.0428 29.8507C46.7202 29.9462 46.3892 30.0383 46.0518 30.128C45.3051 28.0136 44.2975 25.7654 43.0642 23.4425C44.241 21.1749 45.2099 18.9554 45.9356 16.8548C46.5392 17.0111 47.1249 17.1758 47.6895 17.3496C53.1493 19.0308 56.4796 21.5163 56.4796 23.4315C56.4796 25.4715 52.8829 28.1198 47.0428 29.8507ZM44.6197 34.1455C45.2101 36.8129 45.2943 39.2248 44.9031 41.1103C44.5519 42.8046 43.8453 43.934 42.9714 44.3865C41.1122 45.3492 37.1359 44.0979 32.8476 40.7972C32.3406 40.4062 31.8459 40.0027 31.364 39.5872C33.0266 37.9609 34.6881 36.0704 36.3097 33.9707C39.1619 33.7443 41.8566 33.3741 44.3002 32.8688C44.418 33.2921 44.5245 33.7177 44.6197 34.1455ZM20.1144 44.2202C18.2978 44.7939 16.851 44.8103 15.9763 44.3593C14.1153 43.3993 13.3416 39.6931 14.3969 34.7218C14.5224 34.1344 14.666 33.5502 14.8277 32.9698C17.2444 33.4481 19.9194 33.7919 22.7784 33.9993C24.411 36.0539 26.1204 37.9424 27.8432 39.596C27.477 39.9129 27.1023 40.2216 26.7192 40.522C24.4299 42.3117 22.1361 43.5815 20.1144 44.2202ZM11.6041 29.8382C8.72716 28.9586 6.35126 27.8155 4.72277 26.5682C3.25929 25.4474 2.52064 24.3344 2.52064 23.4315C2.52064 21.5099 5.72346 19.0589 11.0655 17.3931C11.7138 17.191 12.3923 17.0004 13.0964 16.8214C13.8348 18.9694 14.8032 21.2153 15.9719 23.4864C14.788 25.791 13.8058 28.0728 13.0602 30.2461C12.5712 30.1208 12.0857 29.9848 11.6041 29.8382ZM14.4568 12.4688C13.3481 7.4004 14.0844 3.57712 15.9376 2.61753C17.9113 1.59549 22.276 3.0527 26.8763 6.70633C27.1763 6.94512 27.4715 7.18875 27.7616 7.4371C26.0473 9.08354 24.3536 10.958 22.7355 13.0004C19.9607 13.2305 17.3045 13.5999 14.8625 14.0948C14.712 13.556 14.5768 13.0139 14.4568 12.469V12.4688ZM39.9068 18.0898C39.33 17.1986 38.7318 16.3187 38.1126 15.4506C39.9951 15.6635 41.7987 15.9462 43.4924 16.2916C42.984 17.7495 42.3502 19.2735 41.6042 20.836C41.0589 19.9106 40.493 18.995 39.9068 18.0898ZM29.5283 9.04829C30.6908 10.1748 31.8552 11.4325 33.0004 12.7972C30.6772 12.699 28.3502 12.6986 26.0271 12.7959C27.1734 11.4438 28.3477 10.1878 29.5283 9.04829ZM19.0833 18.1053C18.5044 19.0032 17.9491 19.9131 17.4177 20.8342C16.6839 19.2772 16.0558 17.7462 15.543 16.2677C17.2264 15.9309 19.0215 15.6555 20.892 15.4465C20.2659 16.3199 19.6628 17.2063 19.0833 18.1051V18.1053ZM20.9457 31.577C19.0132 31.384 17.1911 31.1228 15.5082 30.7951C16.0291 29.2902 16.671 27.7267 17.4207 26.1363C17.9542 27.0581 18.5118 27.9685 19.0932 28.8668C19.691 29.7903 20.3101 30.6949 20.9457 31.577ZM29.5979 37.9735C28.4032 36.8208 27.2117 35.5454 26.048 34.1737C27.1778 34.2133 28.3294 34.2335 29.5 34.2335C30.7026 34.2335 31.8913 34.2094 33.0614 34.1628C31.9125 35.5592 30.7526 36.8364 29.5979 37.9735ZM41.628 26.0551C42.4166 27.663 43.0813 29.2183 43.6091 30.6974C41.8985 31.0466 40.0516 31.3277 38.1055 31.5366C38.7291 30.6523 39.3329 29.7571 39.9167 28.8514C40.5103 27.9307 41.0808 26.9984 41.628 26.0551ZM37.7335 27.725C36.8398 29.1137 35.8958 30.4759 34.9031 31.8097C33.1049 31.9236 31.3027 31.9802 29.5 31.9793C27.6639 31.9793 25.878 31.9282 24.1582 31.8284C23.1396 30.4978 22.1776 29.1331 21.2743 27.7374H21.2746C20.3756 26.349 19.5358 24.9307 18.7572 23.4853C19.5338 22.0396 20.371 20.6206 21.267 19.2312L21.2667 19.2314C22.1623 17.8417 23.1166 16.4828 24.1275 15.1579C25.8821 15.0391 27.6814 14.9773 29.4998 14.9773H29.5C31.3267 14.9773 33.1283 15.0398 34.8824 15.1593C35.8831 16.4823 36.8313 17.8365 37.7252 19.2193C38.6241 20.6056 39.4724 22.0177 40.2687 23.4534C39.4806 24.9037 38.635 26.3285 37.7335 27.725ZM42.9329 2.55033C44.9085 3.56949 45.6768 7.67931 44.4355 13.0688C44.3562 13.4127 44.2673 13.7629 44.1705 14.1181C41.7225 13.6126 39.0645 13.2369 36.2815 13.0033C34.6604 10.9384 32.9805 9.06107 31.2942 7.43586C31.7362 7.05481 32.1886 6.68364 32.6512 6.3227C37.0071 2.93231 41.0781 1.59364 42.9329 2.55033ZM29.5 18.7192C32.4097 18.7192 34.7685 20.829 34.7685 23.4315C34.7685 26.034 32.4097 28.1439 29.5 28.1439C26.5903 28.1439 24.2315 26.034 24.2315 23.4315C24.2315 20.829 26.5903 18.7192 29.5 18.7192Z" fill="#00D8FF"/>
</g>
<defs>
<clipPath id="clip0_458_2734">
<rect width="59" height="47" fill="white"/>
</clipPath>
</defs>
</svg>
