<svg width="54" height="47" viewBox="0 0 54 47" fill="none" xmlns="http://www.w3.org/2000/svg">
<g clip-path="url(#clip0_458_2751)">
<path d="M11.3571 29.617C11.3571 32.34 8.8286 34.541 5.69998 34.541C2.57135 34.541 0.0428467 32.34 0.0428467 29.617C0.0428467 26.8941 2.57135 24.6934 5.70019 24.6934H11.3569V29.6172L11.3571 29.617ZM14.1858 29.617C14.1858 26.8941 16.7143 24.6934 19.8429 24.6934C22.9715 24.6934 25.5 26.8941 25.5 29.6172V41.9266C25.5 44.6496 22.9715 46.8506 19.8427 46.8506C16.7145 46.8506 14.1858 44.6496 14.1858 41.9266V29.6172V29.617Z" fill="#E01E5A"/>
<path d="M19.8429 9.8476C16.7143 9.8476 14.1855 7.64686 14.1855 4.9238C14.1855 2.20074 16.7145 0 19.8429 0C22.9713 0 25.5 2.20074 25.5 4.9238V9.84779H19.8427L19.8429 9.8476ZM19.8429 12.3469C22.9715 12.3469 25.5 14.5476 25.5 17.2707C25.5 19.9937 22.9715 22.1945 19.8427 22.1945H5.65734C2.52851 22.1945 0 19.9937 0 17.2705C0 14.5478 2.52851 12.3469 5.65713 12.3469H19.8427H19.8429Z" fill="#36C5F0"/>
<path d="M42.5145 17.2707C42.5145 14.5476 45.043 12.3467 48.1714 12.3467C51.3 12.3467 53.8287 14.5476 53.8287 17.2707C53.8287 19.9937 51.3 22.1945 48.1714 22.1945H42.5145V17.2705V17.2707ZM39.6858 17.2707C39.6858 19.9937 37.1571 22.1945 34.0284 22.1945C30.9 22.1945 28.3715 19.9937 28.3715 17.2705V4.92399C28.3715 2.20074 30.9 0 34.0284 0C37.1569 0 39.6856 2.20074 39.6856 4.9238V17.2705L39.6858 17.2707Z" fill="#2EB67D"/>
<path d="M34.0284 37.003C37.1571 37.003 39.6858 39.2037 39.6858 41.9266C39.6858 44.6496 37.1571 46.8506 34.0284 46.8506C30.9 46.8506 28.3715 44.6496 28.3715 41.9266V37.003H34.0287H34.0284ZM34.0284 34.541C30.9 34.541 28.3715 32.34 28.3715 29.617C28.3715 26.8941 30.9 24.6934 34.0287 24.6934H48.2142C51.3428 24.6934 53.8715 26.8941 53.8715 29.6172C53.8715 32.34 51.3428 34.541 48.2142 34.541H34.0287H34.0284Z" fill="#ECB22E"/>
</g>
<defs>
<clipPath id="clip0_458_2751">
<rect width="54" height="47" fill="white"/>
</clipPath>
</defs>
</svg>
