<svg width="32" height="32" viewBox="0 0 32 32" fill="none" xmlns="http://www.w3.org/2000/svg">
<path d="M16.0002 4.8002C15.3637 4.8002 14.7532 5.05305 14.3031 5.50314C13.8531 5.95323 13.6002 6.56368 13.6002 7.2002C13.6002 7.83671 13.8531 8.44716 14.3031 8.89725C14.7532 9.34734 15.3637 9.6002 16.0002 9.6002C16.6367 9.6002 17.2472 9.34734 17.6973 8.89725C18.1473 8.44716 18.4002 7.83671 18.4002 7.2002C18.4002 6.56368 18.1473 5.95323 17.6973 5.50314C17.2472 5.05305 16.6367 4.8002 16.0002 4.8002ZM12.0002 7.2002C12.0002 6.13933 12.4216 5.12191 13.1718 4.37177C13.9219 3.62162 14.9393 3.2002 16.0002 3.2002C17.0611 3.2002 18.0785 3.62162 18.8286 4.37177C19.5788 5.12191 20.0002 6.13933 20.0002 7.2002C20.0002 8.26106 19.5788 9.27848 18.8286 10.0286C18.0785 10.7788 17.0611 11.2002 16.0002 11.2002C14.9393 11.2002 13.9219 10.7788 13.1718 10.0286C12.4216 9.27848 12.0002 8.26106 12.0002 7.2002ZM24.8002 6.4002C24.3758 6.4002 23.9689 6.56877 23.6688 6.86882C23.3688 7.16888 23.2002 7.57585 23.2002 8.0002C23.2002 8.42454 23.3688 8.83151 23.6688 9.13157C23.9689 9.43162 24.3758 9.6002 24.8002 9.6002C25.2245 9.6002 25.6315 9.43162 25.9316 9.13157C26.2316 8.83151 26.4002 8.42454 26.4002 8.0002C26.4002 7.57585 26.2316 7.16888 25.9316 6.86882C25.6315 6.56877 25.2245 6.4002 24.8002 6.4002V6.4002ZM21.6002 8.0002C21.6002 7.1515 21.9373 6.33757 22.5375 5.73745C23.1376 5.13734 23.9515 4.8002 24.8002 4.8002C25.6489 4.8002 26.4628 5.13734 27.0629 5.73745C27.6631 6.33757 28.0002 7.1515 28.0002 8.0002C28.0002 8.84889 27.6631 9.66282 27.0629 10.2629C26.4628 10.8631 25.6489 11.2002 24.8002 11.2002C23.9515 11.2002 23.1376 10.8631 22.5375 10.2629C21.9373 9.66282 21.6002 8.84889 21.6002 8.0002ZM5.6002 8.0002C5.6002 7.57585 5.76877 7.16888 6.06882 6.86882C6.36888 6.56877 6.77585 6.4002 7.2002 6.4002C7.62454 6.4002 8.03151 6.56877 8.33157 6.86882C8.63162 7.16888 8.8002 7.57585 8.8002 8.0002C8.8002 8.42454 8.63162 8.83151 8.33157 9.13157C8.03151 9.43162 7.62454 9.6002 7.2002 9.6002C6.77585 9.6002 6.36888 9.43162 6.06882 9.13157C5.76877 8.83151 5.6002 8.42454 5.6002 8.0002ZM7.2002 4.8002C6.3515 4.8002 5.53757 5.13734 4.93745 5.73745C4.33734 6.33757 4.0002 7.1515 4.0002 8.0002C4.0002 8.84889 4.33734 9.66282 4.93745 10.2629C5.53757 10.8631 6.3515 11.2002 7.2002 11.2002C8.04889 11.2002 8.86282 10.8631 9.46294 10.2629C10.0631 9.66282 10.4002 8.84889 10.4002 8.0002C10.4002 7.1515 10.0631 6.33757 9.46294 5.73745C8.86282 5.13734 8.04889 4.8002 7.2002 4.8002ZM8.1602 23.997C7.72697 24.0187 7.29385 23.9521 6.88717 23.8012C6.48048 23.6503 6.10872 23.4183 5.79446 23.1193C5.4802 22.8203 5.23001 22.4606 5.05909 22.0619C4.88817 21.6632 4.80009 21.234 4.8002 20.8002V14.8002C4.8002 14.6941 4.84234 14.5924 4.91735 14.5174C4.99237 14.4423 5.09411 14.4002 5.2002 14.4002H8.0226C8.0866 13.813 8.2946 13.2674 8.6066 12.8002H5.2002C4.0962 12.8002 3.2002 13.6962 3.2002 14.8002V20.8002C3.20012 21.4852 3.34666 22.1623 3.62996 22.7859C3.91326 23.4096 4.32676 23.9654 4.84268 24.416C5.3586 24.8666 5.96499 25.2015 6.6211 25.3983C7.27721 25.5951 7.96784 25.6492 8.6466 25.557C8.43125 25.0551 8.26825 24.5323 8.1602 23.997V23.997ZM23.3538 25.557C24.0325 25.6492 24.7232 25.5951 25.3793 25.3983C26.0354 25.2015 26.6418 24.8666 27.1577 24.416C27.6736 23.9654 28.0871 23.4096 28.3704 22.7859C28.6537 22.1623 28.8003 21.4852 28.8002 20.8002V14.8002C28.8002 13.6962 27.9042 12.8002 26.8002 12.8002H23.3938C23.7074 13.2674 23.9138 13.813 23.9778 14.4002H26.8002C26.9063 14.4002 27.008 14.4423 27.083 14.5174C27.1581 14.5924 27.2002 14.6941 27.2002 14.8002V20.8002C27.2003 21.234 27.1122 21.6632 26.9413 22.0619C26.7704 22.4606 26.5202 22.8203 26.2059 23.1193C25.8917 23.4183 25.5199 23.6503 25.1132 23.8012C24.7065 23.9521 24.2734 24.0187 23.8402 23.997C23.7321 24.5323 23.5691 25.0551 23.3538 25.557V25.557ZM11.6002 12.8002C10.4962 12.8002 9.6002 13.6962 9.6002 14.8002V22.4002C9.6002 24.0976 10.2745 25.7254 11.4747 26.9257C12.6749 28.1259 14.3028 28.8002 16.0002 28.8002C17.6976 28.8002 19.3254 28.1259 20.5257 26.9257C21.7259 25.7254 22.4002 24.0976 22.4002 22.4002V14.8002C22.4002 13.6962 21.5042 12.8002 20.4002 12.8002H11.6002ZM11.2002 14.8002C11.2002 14.6941 11.2423 14.5924 11.3174 14.5174C11.3924 14.4423 11.4941 14.4002 11.6002 14.4002H20.4002C20.5063 14.4002 20.608 14.4423 20.683 14.5174C20.7581 14.5924 20.8002 14.6941 20.8002 14.8002V22.4002C20.8002 23.6732 20.2945 24.8941 19.3943 25.7943C18.4941 26.6945 17.2732 27.2002 16.0002 27.2002C14.7272 27.2002 13.5063 26.6945 12.6061 25.7943C11.7059 24.8941 11.2002 23.6732 11.2002 22.4002V14.8002Z" fill="white"/>
</svg>
