<svg width="34" height="34" viewBox="0 0 34 34" fill="none" xmlns="http://www.w3.org/2000/svg">
<circle cx="16.89" cy="16.89" r="16.89" fill="#C8B6FF"/>
<path d="M11.344 11.1559C11.904 11.6105 12.1134 11.5759 13.1654 11.5052L23.076 10.9105C23.2867 10.9105 23.112 10.7012 23.0414 10.6665L21.3947 9.47586C21.08 9.23052 20.66 8.95052 19.8547 9.02119L10.2574 9.72119C9.90803 9.75586 9.83737 9.93052 9.97737 10.0705L11.344 11.1559V11.1559ZM11.9387 13.4652V23.8932C11.9387 24.4532 12.2187 24.6639 12.8494 24.6292L23.7427 23.9985C24.372 23.9639 24.4427 23.5785 24.4427 23.1239V12.7652C24.4427 12.3119 24.268 12.0652 23.8827 12.0999L12.4987 12.7652C12.0787 12.7999 11.9387 13.0105 11.9387 13.4652V13.4652ZM22.692 14.0252C22.7614 14.3399 22.692 14.6545 22.376 14.6905L21.8507 14.7945V22.4932C21.396 22.7385 20.9747 22.8799 20.624 22.8799C20.064 22.8799 19.924 22.7039 19.504 22.1785L16.0707 16.7892V22.0039L17.1574 22.2492C17.1574 22.2492 17.1574 22.8785 16.2814 22.8785L13.8654 23.0185C13.7947 22.8785 13.8654 22.5292 14.1107 22.4585L14.74 22.2852V15.3892L13.8667 15.3199C13.796 15.0052 13.9707 14.5505 14.4614 14.5145L17.0534 14.3412L20.6267 19.7999V14.9705L19.716 14.8652C19.6454 14.4799 19.9254 14.1999 20.276 14.1652L22.6934 14.0252H22.692ZM9.45203 8.77586L19.4347 8.04119C20.66 7.93452 20.9747 8.00652 21.7454 8.56652L24.932 10.8065C25.4587 11.1905 25.6334 11.2959 25.6334 11.7159V23.9985C25.6334 24.7692 25.3534 25.2252 24.372 25.2932L12.78 25.9932C12.044 26.0292 11.6934 25.9239 11.308 25.4332L8.96137 22.3892C8.54137 21.8292 8.3667 21.4092 8.3667 20.9185V9.99986C8.3667 9.37052 8.6467 8.84519 9.45203 8.77586V8.77586Z" fill="#1B1B2D"/>
</svg>
