<svg width="37" height="37" viewBox="0 0 37 37" fill="none" xmlns="http://www.w3.org/2000/svg">
<path fill-rule="evenodd" clip-rule="evenodd" d="M18.0171 34.9083C27.3459 34.9083 34.9083 27.3459 34.9083 18.0171C34.9083 8.68841 27.3459 1.12598 18.0171 1.12598C8.68841 1.12598 1.12598 8.68841 1.12598 18.0171C1.12598 27.3459 8.68841 34.9083 18.0171 34.9083ZM25.604 14.6423C25.604 14.4734 25.604 14.301 25.5934 14.1356C26.357 13.5831 27.0221 12.8899 27.5535 12.1087C26.8497 12.4148 26.0896 12.633 25.3014 12.7174C26.1142 12.2353 26.7265 11.4717 27.0186 10.5673C26.2656 11.0107 25.421 11.3415 24.5377 11.5069C23.8234 10.7468 22.8099 10.2753 21.6838 10.2753C19.298 10.2753 17.3132 12.4254 17.8657 15.0822C16.3111 15.0046 14.7901 14.6008 13.4018 13.8969C12.0134 13.193 10.7887 12.2048 9.80723 10.9966C9.46589 11.5738 9.27586 12.2389 9.27586 12.9673C9.2763 13.6107 9.4355 14.2441 9.73935 14.8113C10.0432 15.3785 10.4823 15.862 11.0178 16.2188C10.3808 16.1942 9.77204 16.0147 9.25475 15.7227V15.7719C9.25294 16.6742 9.56357 17.5493 10.1338 18.2485C10.7041 18.9478 11.4989 19.428 12.3831 19.6076C11.7638 19.766 11.2219 19.766 10.6201 19.678C11.1128 21.2264 12.5556 22.3524 14.2728 22.3876C12.9321 23.4363 11.25 24.0556 9.42014 24.0556C9.09639 24.0556 8.79376 24.0416 8.47705 24.0064C10.2084 25.1148 12.2635 25.7588 14.4805 25.7588C21.6698 25.7588 25.604 19.8082 25.604 14.6423Z" fill="#997DF1"/>
</svg>
