<svg width="32" height="32" viewBox="0 0 32 32" fill="none" xmlns="http://www.w3.org/2000/svg">
<path d="M9.33398 13.333V15.9997C9.33398 16.889 9.86732 18.6663 12.0007 18.6663C14.134 18.6663 14.6673 16.889 14.6673 15.9997V13.333M18.6673 13.333L20.6673 15.9997M22.6673 18.6663L20.6673 15.9997M20.6673 15.9997L22.6673 13.333M20.6673 15.9997L18.6673 18.6663" stroke="white" stroke-width="2" stroke-linecap="round" stroke-linejoin="round"/>
<path d="M16.0003 29.3332C23.3641 29.3332 29.3337 23.3636 29.3337 15.9998C29.3337 8.63604 23.3641 2.6665 16.0003 2.6665C8.63653 2.6665 2.66699 8.63604 2.66699 15.9998C2.66699 23.3636 8.63653 29.3332 16.0003 29.3332Z" stroke="white" stroke-width="2" stroke-linecap="round" stroke-linejoin="round"/>
</svg>
