<svg width="32" height="32" viewBox="0 0 32 32" fill="none" xmlns="http://www.w3.org/2000/svg">
<path d="M22.5362 3.2002H6.4002C5.5515 3.2002 4.73757 3.53734 4.13745 4.13745C3.53734 4.73757 3.2002 5.5515 3.2002 6.4002V20.8002C3.2002 21.6489 3.53734 22.4628 4.13745 23.0629C4.73757 23.6631 5.5515 24.0002 6.4002 24.0002H11.2002V27.2002H8.8002C8.58802 27.2002 8.38454 27.2845 8.23451 27.4345C8.08448 27.5845 8.0002 27.788 8.0002 28.0002C8.0002 28.2124 8.08448 28.4159 8.23451 28.5659C8.38454 28.7159 8.58802 28.8002 8.8002 28.8002H23.2002C23.4124 28.8002 23.6159 28.7159 23.7659 28.5659C23.9159 28.4159 24.0002 28.2124 24.0002 28.0002C24.0002 27.788 23.9159 27.5845 23.7659 27.4345C23.6159 27.2845 23.4124 27.2002 23.2002 27.2002H20.8002V24.0002H25.6002C26.4489 24.0002 27.2628 23.6631 27.8629 23.0629C28.4631 22.4628 28.8002 21.6489 28.8002 20.8002V11.2002H27.2002V20.8002C27.2002 21.2245 27.0316 21.6315 26.7316 21.9316C26.4315 22.2316 26.0245 22.4002 25.6002 22.4002H6.4002C5.97585 22.4002 5.56888 22.2316 5.26882 21.9316C4.96877 21.6315 4.8002 21.2245 4.8002 20.8002V6.4002C4.8002 5.97585 4.96877 5.56888 5.26882 5.26882C5.56888 4.96877 5.97585 4.8002 6.4002 4.8002H22.4002V4.0002C22.4002 3.7202 22.4482 3.4498 22.5362 3.2002ZM19.2002 27.2002H12.8002V24.0002H19.2002V27.2002ZM24.0002 4.0002C24.0002 3.78802 24.0845 3.58454 24.2345 3.43451C24.3845 3.28448 24.588 3.2002 24.8002 3.2002H29.6002C29.8124 3.2002 30.0159 3.28448 30.1659 3.43451C30.3159 3.58454 30.4002 3.78802 30.4002 4.0002V8.8002C30.4002 9.01237 30.3159 9.21585 30.1659 9.36588C30.0159 9.51591 29.8124 9.6002 29.6002 9.6002H24.8002C24.588 9.6002 24.3845 9.51591 24.2345 9.36588C24.0845 9.21585 24.0002 9.01237 24.0002 8.8002V8.0002H22.7522C22.5844 8.00032 22.4208 8.05323 22.2847 8.15144C22.1486 8.24964 22.0468 8.38816 21.9938 8.5474L21.1234 11.1586C20.9643 11.6363 20.659 12.0519 20.2507 12.3465C19.8423 12.6411 19.3517 12.7998 18.8482 12.8002H17.6002V15.2002C17.6002 15.4124 17.5159 15.6159 17.3659 15.7659C17.2159 15.9159 17.0124 16.0002 16.8002 16.0002H12.0002C11.788 16.0002 11.5845 15.9159 11.4345 15.7659C11.2845 15.6159 11.2002 15.4124 11.2002 15.2002V10.4002C11.2002 10.188 11.2845 9.98454 11.4345 9.83451C11.5845 9.68448 11.788 9.6002 12.0002 9.6002H16.8002C17.0124 9.6002 17.2159 9.68448 17.3659 9.83451C17.5159 9.98454 17.6002 10.188 17.6002 10.4002V11.2002H18.8482C19.016 11.2001 19.1796 11.1472 19.3157 11.049C19.4518 10.9508 19.5536 10.8122 19.6066 10.653L20.477 8.0418C20.6361 7.56409 20.9414 7.14852 21.3497 6.85392C21.7581 6.55931 22.2487 6.40058 22.7522 6.4002H24.0002V4.0002ZM16.0002 11.2002H12.8002V14.4002H16.0002V11.2002ZM25.6002 8.0002H28.8002V4.8002H25.6002V8.0002Z" fill="white"/>
</svg>
