<svg width="35" height="35" viewBox="0 0 35 35" fill="none" xmlns="http://www.w3.org/2000/svg">
<path d="M8.90317 18.3531V30.7635M26.0969 18.3531V30.7635M17.5 3.28125C14.0087 3.28125 10.6603 4.66767 8.19091 7.13571C5.7215 9.60375 4.33323 12.9514 4.3313 16.4427V24.5583C4.33243 25.9449 4.77663 27.2948 5.59909 28.4111C6.42155 29.5274 7.57922 30.3516 8.90317 30.7635C8.90317 30.889 8.92788 31.0132 8.97588 31.1291C9.02389 31.245 9.09425 31.3503 9.18295 31.439C9.27165 31.5277 9.37695 31.598 9.49284 31.646C9.60873 31.694 9.73294 31.7188 9.85838 31.7188H11.7688C11.8945 31.7197 12.0192 31.6957 12.1355 31.648C12.2518 31.6004 12.3575 31.53 12.4464 31.4411C12.5353 31.3522 12.6056 31.2466 12.6533 31.1302C12.7009 31.0139 12.725 30.8893 12.724 30.7635V18.3677C12.725 18.242 12.7009 18.1174 12.6533 18.001C12.6056 17.8847 12.5353 17.779 12.4464 17.6901C12.3575 17.6012 12.2518 17.5309 12.1355 17.4832C12.0192 17.4356 11.8945 17.4115 11.7688 17.4125H9.85838C9.60505 17.4125 9.36208 17.5131 9.18295 17.6923C9.00381 17.8714 8.90317 18.1144 8.90317 18.3677C8.00127 18.6478 7.17221 19.1233 6.47505 19.7604V16.4427C6.47085 14.5231 6.97394 12.6366 7.93338 10.974L9.12922 11.8344C9.24122 11.9114 9.36882 11.9629 9.50295 11.985C9.63707 12.0072 9.77443 11.9996 9.90528 11.9627C10.0361 11.9258 10.1572 11.8606 10.26 11.7716C10.3628 11.6826 10.4448 11.5721 10.5 11.4479V11.4479C11.292 10.3328 12.3394 9.42346 13.5546 8.79596C14.7699 8.16845 16.1177 7.84101 17.4855 7.84101C18.8532 7.84101 20.201 8.16845 21.4163 8.79596C22.6316 9.42346 23.679 10.3328 24.4709 11.4479V11.4479C24.5262 11.5721 24.6081 11.6826 24.7109 11.7716C24.8137 11.8606 24.9348 11.9258 25.0656 11.9627C25.1965 11.9996 25.3339 12.0072 25.468 11.985C25.6021 11.9629 25.7297 11.9114 25.8417 11.8344L27.0375 10.974C27.997 12.6366 28.5001 14.5231 28.4959 16.4427V19.7458C27.7987 19.1088 26.9697 18.6332 26.0678 18.3531C26.0678 18.0998 25.9671 17.8568 25.788 17.6777C25.6088 17.4986 25.3659 17.3979 25.1125 17.3979H23.2313C23.1056 17.3969 22.9809 17.421 22.8646 17.4687C22.7483 17.5163 22.6426 17.5866 22.5537 17.6755C22.4648 17.7644 22.3945 17.8701 22.3468 17.9864C22.2992 18.1028 22.2751 18.2274 22.2761 18.3531V30.749C22.2751 30.8747 22.2992 30.9993 22.3468 31.1156C22.3945 31.232 22.4648 31.3377 22.5537 31.4266C22.6426 31.5155 22.7483 31.5858 22.8646 31.6334C22.9809 31.6811 23.1056 31.7051 23.2313 31.7042H25.1417C25.3951 31.7042 25.638 31.6035 25.8171 31.4244C25.9963 31.2453 26.0969 31.0023 26.0969 30.749C27.4209 30.337 28.5785 29.5128 29.401 28.3965C30.2235 27.2802 30.6677 25.9303 30.6688 24.5438V16.4427C30.6669 12.9514 29.2786 9.60375 26.8092 7.13571C24.3398 4.66767 20.9914 3.28125 17.5 3.28125V3.28125Z" stroke="white" stroke-linecap="round" stroke-linejoin="round"/>
<path d="M9.15845 9.23877C10.1932 8.04008 11.4737 7.07788 12.9129 6.41739C14.3521 5.7569 15.9166 5.41356 17.5001 5.41064V5.41064C19.0837 5.41356 20.6481 5.7569 22.0873 6.41739C23.5266 7.07788 24.807 8.04008 25.8418 9.23877" stroke="white" stroke-linecap="round" stroke-linejoin="round"/>
</svg>
