<svg width="37" height="37" viewBox="0 0 37 37" fill="none" xmlns="http://www.w3.org/2000/svg">
<g clip-path="url(#clip0_458_723)">
<path d="M26.562 18.0148C26.5579 16.6691 26.4136 15.3274 26.1317 14.0115H29.7347C29.5491 13.4626 29.325 12.9275 29.0641 12.4102H25.7113C25.0811 10.3045 24.1035 8.31884 22.8189 6.53527C21.9982 6.19018 21.1425 5.93515 20.2668 5.77463C22.0266 7.66545 23.3549 9.91577 24.16 12.3701H18.7655V5.60449H17.2643V12.3801H11.8698C12.6765 9.92133 14.0084 7.66741 15.7731 5.77463C14.9011 5.93247 14.0488 6.18414 13.2309 6.52526C11.9413 8.30136 10.957 10.2801 10.3185 12.3801H6.9457C6.68005 12.9069 6.45261 13.4521 6.26514 14.0115H9.89816C9.61622 15.3274 9.47199 16.6691 9.4678 18.0148C9.47057 19.4868 9.63842 20.9539 9.96822 22.3885H6.42527C6.63232 22.9495 6.87985 23.4947 7.16589 24.0198H10.3986C11.0113 25.9372 11.9197 27.7472 13.0908 29.3843C13.9295 29.744 14.8056 30.0092 15.703 30.1749C14.0696 28.3932 12.8133 26.2995 12.0099 24.0198H17.2743V30.3651H18.7756V24.0198H24.0199C23.2138 26.3005 21.9541 28.3943 20.3168 30.1749C21.2184 30.0035 22.098 29.7316 22.939 29.3643C24.1083 27.7333 25.0166 25.9302 25.6313 24.0198H28.8339C29.1187 23.5044 29.3662 22.9692 29.5745 22.4185H26.0216C26.3671 20.9757 26.5484 19.4984 26.562 18.0148ZM17.2643 22.3885H11.5195C10.8149 19.634 10.784 16.7504 11.4294 13.9815H17.2643V22.3885ZM24.5103 22.3885H18.7655V14.0115H24.6004C24.8879 15.3263 25.0289 16.669 25.0208 18.0148C25.0289 19.488 24.8575 20.9567 24.5103 22.3885Z" fill="#C8B6FF"/>
<path d="M18.015 2.00146C14.8479 2.00146 11.7519 2.94063 9.11852 4.7002C6.48514 6.45977 4.43267 8.96071 3.22066 11.8868C2.00865 14.8128 1.69153 18.0326 2.30941 21.1388C2.92729 24.2451 4.45241 27.0984 6.69191 29.3379C8.93142 31.5774 11.7847 33.1026 14.891 33.7204C17.9973 34.3383 21.217 34.0212 24.1431 32.8092C27.0691 31.5972 29.5701 29.5447 31.3296 26.9113C33.0892 24.2779 34.0284 21.1819 34.0284 18.0148C34.0284 13.7678 32.3413 9.69474 29.3382 6.69166C26.3351 3.68858 22.262 2.00146 18.015 2.00146ZM18.015 32.0265C15.2438 32.0265 12.5348 31.2047 10.2306 29.6651C7.92638 28.1255 6.13047 25.9371 5.06996 23.3768C4.00945 20.8165 3.73197 17.9993 4.27261 15.2813C4.81326 12.5633 6.14774 10.0666 8.1073 8.10705C10.0669 6.14749 12.5635 4.813 15.2815 4.27236C17.9995 3.73172 20.8168 4.0092 23.3771 5.06971C25.9374 6.13022 28.1257 7.92613 29.6653 10.2303C31.2049 12.5345 32.0267 15.2436 32.0267 18.0148C32.0267 21.7309 30.5505 25.2948 27.9228 27.9225C25.2951 30.5502 21.7312 32.0265 18.015 32.0265Z" fill="#C8B6FF"/>
</g>
<defs>
<clipPath id="clip0_458_723">
<rect width="36.03" height="36.03" fill="white"/>
</clipPath>
</defs>
</svg>
