<svg width="65" height="62" viewBox="0 0 65 62" fill="none" xmlns="http://www.w3.org/2000/svg">
<g clip-path="url(#clip0_458_2701)">
<path d="M54.209 0H10.791C4.8313 0 0 4.71892 0 10.54V51.3608C0 57.1819 4.8313 61.9008 10.791 61.9008H54.209C60.1687 61.9008 65 57.1819 65 51.3608V10.54C65 4.71892 60.1687 0 54.209 0Z" fill="#470137"/>
<path d="M34.1701 16.2786L26.0596 29.3539L34.7369 43.2382C34.7927 43.3354 34.8082 43.4495 34.7805 43.5576C34.7671 43.6037 34.7381 43.6151 34.6937 43.6169L34.6444 43.6161L34.5845 43.6146C34.552 43.6146 34.5157 43.6161 34.4753 43.6226H28.2191L28.0962 43.6206C27.759 43.6119 27.516 43.5648 27.368 43.3232C26.7891 42.2217 26.2077 41.1215 25.6237 40.0226C25.1013 39.0425 24.5646 38.0696 24.0139 37.1044L23.7707 36.6793C23.112 35.5359 22.4651 34.3859 21.8303 33.2296H21.7866C21.2004 34.3738 20.5971 35.5096 19.977 36.6367C19.3517 37.7725 18.7339 38.9014 18.1238 40.0226C17.5133 41.1447 16.8883 42.2592 16.2489 43.3659C16.1461 43.5916 15.9752 43.6387 15.7373 43.6464L15.6383 43.6479H9.66464L9.63874 43.6486L9.55343 43.6561C9.50595 43.6588 9.47751 43.6489 9.46837 43.5789C9.45198 43.4751 9.4753 43.369 9.53388 43.2808L17.9493 29.7797L9.75173 16.2364C9.66464 16.1233 9.65017 16.0311 9.70806 15.9597C9.74023 15.9233 9.78064 15.8947 9.82607 15.8762C9.8715 15.8577 9.92072 15.8497 9.96983 15.853H16.1179C16.252 15.8458 16.386 15.8677 16.5105 15.917C16.6146 15.9748 16.7042 16.0549 16.772 16.1514C17.2953 17.2872 17.8767 18.423 18.5163 19.5584C19.1509 20.6866 19.7978 21.8082 20.4567 22.923C21.1055 24.0206 21.7092 25.143 22.2663 26.2876H22.3099C22.8809 25.1433 23.4696 24.0075 24.0758 22.8806C24.6713 21.7733 25.2819 20.6585 25.907 19.5371C26.5242 18.43 27.1274 17.3156 27.7166 16.194C27.7501 16.0889 27.81 15.9936 27.891 15.917C27.9988 15.8637 28.1198 15.8416 28.2399 15.853H33.952C34.0046 15.8402 34.0599 15.8444 34.1098 15.865C34.1596 15.8856 34.2013 15.9214 34.2285 15.9671C34.2557 16.0129 34.2669 16.0659 34.2606 16.1184C34.2542 16.1709 34.2306 16.22 34.1933 16.2583L34.1704 16.2791L34.1701 16.2786ZM46.9848 44.1719L46.6842 44.1751C44.6771 44.205 42.6885 43.7977 40.8629 42.9827C39.1622 42.2139 37.7405 40.9589 36.7859 39.3838C35.8233 37.8223 35.3292 35.8765 35.3043 33.5471L35.3033 33.3574C35.287 31.4026 35.7985 29.4782 36.7861 27.7781C37.7746 26.0954 39.2157 24.7089 40.9533 23.7689L41.1028 23.6896C42.9919 22.6673 45.274 22.1562 47.9486 22.1562L48.0654 22.1574L48.199 22.1616L48.3488 22.1681L48.5153 22.1775L48.7951 22.1969L49.112 22.2217L49.3438 22.2415V13.8512C49.3438 13.6528 49.4312 13.5531 49.6054 13.5531H55.0996C55.1352 13.5481 55.1714 13.5513 55.2054 13.5623C55.2395 13.5734 55.2704 13.5921 55.2958 13.6169C55.3212 13.6417 55.3403 13.6719 55.3517 13.7052C55.363 13.7384 55.3663 13.7738 55.3612 13.8085V38.9793C55.3612 39.4019 55.3779 39.8572 55.4114 40.3443L55.4927 41.4491L55.5358 42.0882C55.5412 42.1767 55.5191 42.2647 55.4724 42.3408C55.4257 42.4168 55.3566 42.4773 55.2741 42.5143C53.8567 43.0916 52.3803 43.5198 50.8701 43.7917C49.5879 44.0229 48.2884 44.15 46.9848 44.1719ZM49.3438 38.894V27.267C49.1082 27.2046 48.8675 27.1619 48.6245 27.1393C48.3275 27.1101 48.0291 27.0958 47.7305 27.0966C46.6724 27.0864 45.6268 27.3198 44.6783 27.7781C43.7545 28.2266 42.9657 28.9017 42.3891 29.7373C41.8135 30.5597 41.5157 31.6335 41.4961 32.9588L41.4951 33.1019C41.4739 34.0303 41.6291 34.9544 41.9529 35.8274C42.2165 36.531 42.6331 37.1704 43.1742 37.7016C43.6919 38.1901 44.3188 38.5546 45.0053 38.7662C45.7306 38.9956 46.4886 39.1107 47.2509 39.1072C47.6576 39.1072 48.0355 39.0929 48.3846 39.0643C48.663 39.0439 48.939 38.9991 49.2093 38.9304L49.3438 38.894Z" fill="#FF61F6"/>
</g>
<defs>
<clipPath id="clip0_458_2701">
<rect width="65" height="62" fill="white"/>
</clipPath>
</defs>
</svg>
